<?xml version="1.0" encoding="utf-8"?>
<!-- Generator: Adobe Illustrator 18.0.0, SVG Export Plug-In . SVG Version: 6.00 Build 0)  -->
<!DOCTYPE svg PUBLIC "-//W3C//DTD SVG 1.1//EN" "http://www.w3.org/Graphics/SVG/1.1/DTD/svg11.dtd">
<svg version="1.1" id="Layer_1" xmlns="http://www.w3.org/2000/svg" xmlns:xlink="http://www.w3.org/1999/xlink" x="0px" y="0px"
   viewBox="0 0 673.5 251.8" enable-background="new 0 0 673.5 251.8" xml:space="preserve">
<g>
  <g>
    <path d="M1.6,58.6c4.7-4.8,9.8-8.8,16.3-10.9c4.7-1.5,8.3-0.6,9.4,5.1c1.2,5.8,4.1,11,7.5,15.5C45,81.7,55.4,95,66.2,108
      c17,20.4,35.4,39.6,50.9,61.3c3,4.1,5.5,4.3,8.6,0.4c24.8-30.9,46.5-63.4,53.1-103.6c0.4-2.5,1.1-5,3.6-5.7
      c7.8-2,12.9,2.8,18.1,7.3c4.1,3.5,3,7.3,1.2,11.4c-6.5,14.2-14.9,27.4-23.1,40.5c-16,25.4-32.4,50.6-51.2,74.1
      c-2.8,3.4-5.7,7.4-11.1,6.2c-4.6-1-7-4.1-8-8.8c-0.4-1.9-1.8-3.8-3.1-5.4c-17.3-22.2-34.4-44.6-52.9-65.9
      C36.2,101.2,19.1,83.7,1.6,66.6C1.6,63.9,1.6,61.3,1.6,58.6z"/>
    <path d="M530.8,220.3c10.4-0.5,17.5,0.2,24.5-1.7c2.7-0.7,6.1-1.3,7.8,2c1.7,3.2-0.7,5.6-2.8,7.5c-8.8,8-18.8,12.1-31.1,9.6
      c-37.1-7.4-72.2-20.6-104.7-39.3c-22.6-13-40-32.6-48.1-58.6c-7.4-23.7-0.6-44.8,12.9-64.2c5.4-7.7,11.3-15.2,19.7-20.2
      c19.1-11.4,38.7-12.2,58-1.8c20.2,10.8,29.1,34.8,24.1,60.3c-4.5,23-18.3,39.9-35.7,54.4c-2.2,1.8-4.8,2.1-7.5,1.9
      c-3.2-0.3-6.4-0.9-7.8-4.4c-1.6-4.1,1.6-5.7,4.2-7.4c14.9-9.5,23.3-23.4,26.6-40.5c2-10.5,1.7-21.1-1.3-31.4
      c-4.2-14.5-23.2-29.1-42.8-19.5c-23.9,11.8-36.6,28.5-35,52.8c0.6,9.7,3.9,18.8,9.2,26.7c7.9,11.9,17.2,22.7,28.7,31.4
      c19,14.5,39.6,26,62.6,32.8C506,214.6,518.7,223.2,530.8,220.3z"/>
    <path d="M662.4,196.9c-11,0-19-3.5-22.7-15.3c-2.7-8.7-6.3-17.3-11-25.3c-2.3-3.9-5.2-6.2-9.8-7c-15.7-2.7-31.6-1.6-47.4-1.6
      c-4.2,0-7,2.2-8.3,6.1c-4.5,13.8-13.3,25.8-16.5,40.1c-0.9,3.8-4.1,5.5-7.7,5.8c-4.7,0.4-9.5,0.4-14.2,0.5
      c-3.1,0.1-5.9-0.6-6.6-4.2c-0.6-3.3-0.1-6.9,3.3-8.1c8.3-3,11.6-9.9,15.1-17.2c9.8-20.4,20-40.7,30.1-60.9
      c5-9.9,8.7-20.3,12.3-30.8c2.1-6.1,3.1-12.3,0.6-18.5c-2.1-5.3,0.6-8.5,5-10.9c4.7-2.6,9.4-3.9,13.6,0.9c3.6,4,5.5,8.9,7.6,13.8
      c16.9,38.9,34.4,77.5,57.8,113.1c1.6,2.4,3.4,4.7,5.3,6.9c2.5,2.9,4.8,6.1,2.7,10C669.6,197.8,665.7,196.7,662.4,196.9z
       M594.5,84.3c-6.5,14.6-12.9,28.6-19,42.7c-2.1,4.8,1.7,5.4,5,5.5c10.5,0.2,21.1,0,31.6,0.1c3.5,0,5-1,3.2-4.6
      C608.4,113.6,601.6,99.2,594.5,84.3z"/>
    <path d="M284.2,56.6c22.5-2.6,38.3,13.8,44.4,31.7c9,26.7,9.3,53.3-4.8,78.8c-9.7,17.5-35.8,34.4-58.9,27.3
      c-20.8-6.4-34.3-22-38.3-43.5c-6.4-34.3-0.4-65.2,29.7-87.4C264.6,57.4,274.6,55.8,284.2,56.6z M244.2,125.4
      c-0.6,13.6,3.7,27.6,14,40.2c11.5,14.1,36.2,14.4,46.7-0.6c16.1-22.8,13.6-46.7,5-71.6c-7.5-21.7-37.3-24.1-50.6-10.6
      C248.3,93.9,244.2,107.7,244.2,125.4z"/>
  </g>
</g>
</svg>
